0
SECTION
2
HEADER
9
$INSUNITS
70
4
9
$ACADVER
1
AC1014
9
$HANDSEED
5
FFFF
0
ENDSEC
0
SECTION
2
TABLES
0
TABLE
2
VPORT
5
8
100
AcDbSymbolTable
0
ENDTAB
0
TABLE
2
LTYPE
5
5
100
AcDbSymbolTable
0
LTYPE
5
14
100
AcDbSymbolTableRecord
100
AcDbLinetypeTableRecord
2
BYBLOCK
70
0
0
LTYPE
5
15
100
AcDbSymbolTableRecord
100
AcDbLinetypeTableRecord
2
BYLAYER
70
0
0
ENDTAB
0
TABLE
2
LAYER
5
2
100
AcDbSymbolTable
70
2
0
LAYER
5
50
100
AcDbSymbolTableRecord
100
AcDbLayerTableRecord
2
0
70
0
6
CONTINUOUS
0
ENDTAB
0
TABLE
2
STYLE
5
3
100
AcDbSymbolTable
70
1
0
STYLE
5
11
100
AcDbSymbolTableRecord
100
AcDbTextStyleTableRecord
2
STANDARD
70
0
0
ENDTAB
0
TABLE
2
VIEW
5
6
100
AcDbSymbolTable
70
0
0
ENDTAB
0
TABLE
2
UCS
5
7
100
AcDbSymbolTable
70
0
0
ENDTAB
0
TABLE
2
APPID
5
9
100
AcDbSymbolTable
70
2
0
APPID
5
12
100
AcDbSymbolTableRecord
100
AcDbRegAppTableRecord
2
ACAD
70
0
0
ENDTAB
0
TABLE
2
DIMSTYLE
5
A
100
AcDbSymbolTable
70
1
0
ENDTAB
0
TABLE
2
BLOCK_RECORD
5
1
100
AcDbSymbolTable
70
1
0
BLOCK_RECORD
5
1F
100
AcDbSymbolTableRecord
100
AcDbBlockTableRecord
2
*MODEL_SPACE
0
BLOCK_RECORD
5
1B
100
AcDbSymbolTableRecord
100
AcDbBlockTableRecord
2
*PAPER_SPACE
0
ENDTAB
0
ENDSEC
0
SECTION
2
BLOCKS
0
BLOCK
5
20
100
AcDbEntity
100
AcDbBlockBegin
2
*MODEL_SPACE
0
ENDBLK
5
21
100
AcDbEntity
100
AcDbBlockEnd
0
BLOCK
5
1C
100
AcDbEntity
100
AcDbBlockBegin
2
*PAPER_SPACE
0
ENDBLK
5
1D
100
AcDbEntity
100
AcDbBlockEnd
0
ENDSEC
0
SECTION
2
ENTITIES
0
CIRCLE
5
100
100
AcDbEntity
8
0
100
AcDbCircle
10
7.9000000000000004
20
2.2549999999999999
30
0
40
0.87500000000000022
210
0
220
-0
230
1
0
LWPOLYLINE
5
101
100
AcDbEntity
8
0
100
AcDbPolyline
90
42
70
1
43
0.0
10
-1.875
20
-2.9500000000000002
10
-1.875
20
-3.5499999999999998
42
0.41421356237309453
10
-1.3749999999999996
20
-4.0499999999999998
10
1.3749999999999996
20
-4.0499999999999998
42
0.41421356237309509
10
1.875
20
-3.5499999999999998
10
1.8750000000000002
20
-2.9500000000000002
42
-0.41421356237309437
10
2.375
20
-2.4500000000000006
10
2.9750000000000005
20
-2.4500000000000011
42
-0.4142135623730947
10
3.4750000000000005
20
-2.9500000000000002
10
3.4750000000000005
20
-3.5499999999999998
42
0.41421356237309509
10
3.9750000000000001
20
-4.0499999999999998
10
4.6788666651106823
20
-4.0499999999999998
42
0.097141268588082114
10
5.056602485668682
20
-3.9759134138068064
10
9.2777358205580001
20
-2.2538590184788259
42
0.30480767690464095
10
9.9000000000000004
20
-1.3279456046720193
10
9.9000000000000004
20
3.0549999999999997
42
0.41421356237309509
10
8.8999999999999986
20
4.0549999999999997
10
6.9000000000000004
20
4.0550000000000006
42
0.41421356237309509
10
5.9000000000000004
20
3.0549999999999997
10
5.9000000000000004
20
0
10
1.3
20
0
42
0.41421356237309509
10
0.80000000000000004
20
-0.50000000000000011
10
0.80000000000000049
20
-1.1000000000000005
42
-0.41421356237309509
10
0.30000000000000027
20
-1.6000000000000005
10
-0.30000000000000021
20
-1.6000000000000003
42
-0.41421356237309515
10
-0.80000000000000004
20
-1.1000000000000005
10
-0.80000000000000004
20
-0.50000000000000011
42
0.41421356237309509
10
-1.3
20
0
10
-5.9000000000000004
20
0
10
-5.9000000000000004
20
3.0549999999999997
42
0.41421356237309509
10
-6.9000000000000004
20
4.0549999999999997
10
-8.8999999999999986
20
4.0550000000000006
42
0.41421356237309453
10
-9.8999999999999986
20
3.0549999999999997
10
-9.9000000000000004
20
-1.3279456046720188
42
0.30480767690464072
10
-9.2777358205580001
20
-2.2538590184788254
10
-5.056602485668682
20
-3.9759134138068064
42
0.097141268588080337
10
-4.6788666651106841
20
-4.0499999999999989
10
-3.9750000000000001
20
-4.0499999999999998
42
0.4142135623730947
10
-3.4750000000000005
20
-3.5499999999999998
10
-3.4750000000000005
20
-2.9500000000000002
42
-0.41421356237309509
10
-2.9750000000000005
20
-2.4500000000000006
10
-2.375
20
-2.4500000000000002
42
-0.41421356237309509
0
CIRCLE
5
102
100
AcDbEntity
8
0
100
AcDbCircle
10
-7.9000000000000004
20
2.2549999999999999
30
0
40
0.87500000000000022
210
0
220
-0
230
1
0
ENDSEC
0
SECTION
2
OBJECTS
0
DICTIONARY
5
C
100
AcDbDictionary
3
ACAD_GROUP
350
D
3
ACAD_MLINESTYLE
350
17
0
DICTIONARY
5
D
100
AcDbDictionary
0
DICTIONARY
5
1A
330
C
100
AcDbDictionary
0
DICTIONARY
5
17
100
AcDbDictionary
0
ENDSEC
0
EOF
